<?xml version="1.0" encoding="utf-8"?>
<!-- Generator: Adobe Illustrator 24.2.3, SVG Export Plug-In . SVG Version: 6.00 Build 0)  -->
<svg version="1.1" xmlns="http://www.w3.org/2000/svg" xmlns:xlink="http://www.w3.org/1999/xlink" x="0px" y="0px"
	 viewBox="0 0 322 158" style="enable-background:new 0 0 322 158;" xml:space="preserve">
<style type="text/css">
	.st0{fill:none;}
	.st1{font-family:'Sanchez-Regular';}
	.st2{font-size:34px;}
	.st3{fill:none;stroke:#231F20;stroke-width:6;stroke-miterlimit:10;}
	.st4{stroke:#231F20;stroke-width:3;stroke-miterlimit:10;}
</style>
<g id="Layer_1">
	<rect x="46" y="71" class="st0" width="290" height="82"/>
	<text transform="matrix(1 0 0 1 46 95.4116)"><tspan x="0" y="0" class="st1 st2">CAM CUSTOM </tspan><tspan x="0" y="40.8" class="st1 st2">CONTRACTING</tspan></text>
</g>
<g id="Layer_2">
	<g>
		<path class="st3" d="M35,138V76c0-2.75-2.25-5-5-5H14c-2.75,0-3.28-1.45-1.18-3.23l18.37-15.54C33.28,50.45,35,46.75,35,44V16
			c0-2.75,2.25-5,5-5h5c2.75,0,5,2.25,5,5v20c0,2.75,1.54,3.36,3.41,1.34l21.18-22.69c1.88-2.01,4.86-1.93,6.63,0.17l35.57,42.34
			c1.77,2.11,5.47,3.83,8.22,3.83h191"/>
	</g>
	<rect x="68.5" y="37.5" class="st4" width="6" height="6"/>
	<rect x="81.5" y="37.5" class="st4" width="6" height="6"/>
	<rect x="68.5" y="50.5" class="st4" width="6" height="6"/>
	<rect x="81.5" y="50.5" class="st4" width="6" height="6"/>
</g>
</svg>
